<?xml version="1.0" encoding="UTF-8" standalone="no"?><!DOCTYPE svg PUBLIC "-//W3C//DTD SVG 1.1//EN" "http://www.w3.org/Graphics/SVG/1.1/DTD/svg11.dtd"><svg width="100%" height="100%" viewBox="0 0 1308 1301" version="1.1" xmlns="http://www.w3.org/2000/svg" xmlns:xlink="http://www.w3.org/1999/xlink" xml:space="preserve" xmlns:serif="http://www.serif.com/" style="fill-rule:evenodd;clip-rule:evenodd;stroke-linecap:round;stroke-miterlimit:1;"><g><path d="M621.81,471.445l-59.64,0l91.754,-91.754l91.754,91.754l-59.64,0l-0,307.004l-64.228,-0l0,-307.004Z" style="fill:#313131;"/><path d="M450.35,981.486l42.172,42.171l-129.76,0l0,-129.759l42.172,42.172l217.084,-217.084l45.416,45.415l-217.084,217.085Z" style="fill:#313131;"/><path d="M902.914,936.07l42.172,-42.172l-0,129.759l-129.759,0l42.171,-42.171l-217.084,-217.085l45.416,-45.415l217.084,217.084Z" style="fill:#313131;"/></g><clipPath id="_clip1"><rect id="folder-logo.svg" x="447.674" y="0" width="412.5" height="333.678"/></clipPath><g clip-path="url(#_clip1)"><path d="M854.8,99.236l-18.839,229.169l-364.288,0l-18.838,-229.169l401.965,-0Z" style="fill:#313131;stroke:#313131;stroke-width:7.3px;"/><path d="M452.835,99.236l14.394,-25.008l373.177,0l14.394,25.008l-401.965,-0Z" style="fill:#313131;stroke:#313131;stroke-width:7.3px;"/><path d="M472.885,53.746l0,12.255l0,-60.527l121.849,-0l48.998,31.669l191.017,0l0,28.858l0,-12.255" style="fill:#313131;stroke:#313131;stroke-width:10.95px;stroke-linecap:butt;stroke-linejoin:bevel;stroke-miterlimit:1.5;"/></g><clipPath id="_clip2"><rect id="folder-logo.svg1" serif:id="folder-logo.svg" x="970.348" y="1027.33" width="337.5" height="273.01"/></clipPath><g clip-path="url(#_clip2)"><path d="M1303.45,1108.53l-15.414,187.502l-298.053,0l-15.413,-187.502l328.88,-0Z" style="fill:#313131;stroke:#313131;stroke-width:5.97px;"/><path d="M974.571,1108.53l11.777,-20.461l305.326,-0l11.777,20.461l-328.88,-0Z" style="fill:#313131;stroke:#313131;stroke-width:5.97px;"/><path d="M990.976,1071.31l-0,10.026l-0,-49.522l99.694,0l40.089,25.911l156.287,0l0,23.611l0,-10.026" style="fill:#313131;stroke:#313131;stroke-width:8.96px;stroke-linecap:butt;stroke-linejoin:bevel;stroke-miterlimit:1.5;"/></g><clipPath id="_clip3"><rect id="folder-logo.svg2" serif:id="folder-logo.svg" x="0" y="1027.33" width="337.5" height="273.01"/></clipPath><g clip-path="url(#_clip3)"><path d="M333.103,1108.53l-15.414,187.502l-298.053,0l-15.414,-187.502l328.881,-0Z" style="fill:#313131;stroke:#313131;stroke-width:5.97px;"/><path d="M4.222,1108.53l11.777,-20.461l305.327,-0l11.777,20.461l-328.881,-0Z" style="fill:#313131;stroke:#313131;stroke-width:5.97px;"/><path d="M20.627,1071.31l0,10.026l0,-49.522l99.694,0l40.09,25.911l156.287,0l-0,23.611l-0,-10.026" style="fill:#313131;stroke:#313131;stroke-width:8.96px;stroke-linecap:butt;stroke-linejoin:bevel;stroke-miterlimit:1.5;"/></g></svg>