<?xml version="1.0" encoding="UTF-8" standalone="no"?><!DOCTYPE svg PUBLIC "-//W3C//DTD SVG 1.1//EN" "http://www.w3.org/Graphics/SVG/1.1/DTD/svg11.dtd"><svg width="100%" height="100%" viewBox="0 0 349 349" version="1.1" xmlns="http://www.w3.org/2000/svg" xmlns:xlink="http://www.w3.org/1999/xlink" xml:space="preserve" xmlns:serif="http://www.serif.com/" style="fill-rule:evenodd;clip-rule:evenodd;stroke-linecap:round;stroke-linejoin:round;stroke-miterlimit:1.5;"><path d="M345.882,20.144l0,308.594c0,9.462 -7.682,17.144 -17.144,17.144l-308.594,0c-9.462,0 -17.144,-7.682 -17.144,-17.144l-0,-308.594c-0,-9.462 7.682,-17.144 17.144,-17.144l308.594,-0c9.462,-0 17.144,7.682 17.144,17.144Z" style="fill:none;stroke:#313131;stroke-width:6px;"/><rect x="20.995" y="21.063" width="16.225" height="16.226" style="fill:#313131;"/><rect x="46.408" y="21.063" width="16.226" height="16.226" style="fill:#313131;"/><rect x="71.81" y="21.063" width="16.225" height="16.226" style="fill:#313131;"/><rect x="20.995" y="48.097" width="307.227" height="9.382" style="fill:#313131;"/><rect x="20.995" y="88.46" width="93.064" height="9.382" style="fill:#313131;"/><rect x="20.827" y="108.651" width="122.57" height="9.382" style="fill:#313131;"/><rect x="20.827" y="128.829" width="186.462" height="9.382" style="fill:#313131;"/><rect x="20.827" y="149.007" width="81.706" height="9.382" style="fill:#313131;"/><rect x="20.995" y="229.731" width="93.064" height="9.382" style="fill:#313131;"/><rect x="20.827" y="249.921" width="122.57" height="9.382" style="fill:#313131;"/><rect x="20.827" y="270.099" width="186.462" height="9.382" style="fill:#313131;"/><rect x="20.827" y="290.277" width="81.706" height="9.382" style="fill:#313131;"/><rect x="20.827" y="169.185" width="116.903" height="9.382" style="fill:#313131;"/><rect x="20.827" y="189.367" width="100.694" height="9.382" style="fill:#313131;"/><rect x="20.827" y="310.467" width="116.903" height="9.382" style="fill:#313131;"/><rect x="20.827" y="209.549" width="129.737" height="9.382" style="fill:#313131;"/><rect x="20.827" y="68.278" width="110.138" height="9.382" style="fill:#313131;"/><circle cx="174.441" cy="174.441" r="107.404" style="fill:#00acff;"/><path d="M165.332,107.429l18.219,0l-0,81.464l30.02,-30.02l12.882,12.882l-52.012,52.012l-52.012,-52.012l12.882,-12.882l30.02,30.02l0,-81.464Z" style="fill:#fff;"/><rect x="118.244" y="230.072" width="112.394" height="11.38" style="fill:#fff;"/></svg>