<?xml version="1.0" encoding="UTF-8" standalone="no"?><!DOCTYPE svg PUBLIC "-//W3C//DTD SVG 1.1//EN" "http://www.w3.org/Graphics/SVG/1.1/DTD/svg11.dtd"><svg width="100%" height="100%" viewBox="0 0 24 24" version="1.1" xmlns="http://www.w3.org/2000/svg" xmlns:xlink="http://www.w3.org/1999/xlink" xml:space="preserve" xmlns:serif="http://www.serif.com/" style="fill-rule:evenodd;clip-rule:evenodd;stroke-linecap:round;stroke-linejoin:round;"><rect x="0" y="0" width="24" height="24" style="fill:none;fill-rule:nonzero;"/><path d="M3.5,3.034l10,-0" style="fill:none;fill-rule:nonzero;stroke:#ff6855;stroke-width:2px;"/><path d="M3.5,15.034l10,-0" style="fill:none;fill-rule:nonzero;stroke:#ff6855;stroke-width:2px;"/><path d="M3.5,9.034l17,-0l-3,-3m0,6l3,-3" style="fill:none;fill-rule:nonzero;stroke:#ff6855;stroke-width:2px;"/><g><path d="M3.454,21.985c-0.288,0 -0.519,-0.121 -0.692,-0.364c-0.174,-0.243 -0.261,-0.561 -0.261,-0.956l0.635,0c0,0.137 0.029,0.247 0.088,0.33c0.058,0.084 0.135,0.125 0.23,0.125l0.426,0c0.19,0 0.285,-0.083 0.285,-0.25l-0,-0.129c-0,-0.05 -0.016,-0.097 -0.048,-0.14c-0.031,-0.043 -0.074,-0.072 -0.128,-0.088l-0.82,-0.227c-0.192,-0.051 -0.345,-0.161 -0.457,-0.33c-0.112,-0.17 -0.168,-0.368 -0.168,-0.596l-0,-0.25c-0,-0.324 0.083,-0.577 0.248,-0.759c0.166,-0.182 0.398,-0.273 0.695,-0.273l0.37,-0c0.265,-0 0.479,0.112 0.642,0.337c0.163,0.226 0.244,0.523 0.244,0.892l-0.635,0c-0,-0.111 -0.023,-0.2 -0.069,-0.266c-0.046,-0.065 -0.107,-0.098 -0.182,-0.098l-0.361,-0c-0.205,-0 -0.308,0.076 -0.308,0.227l0,0.122c0,0.055 0.014,0.102 0.041,0.14c0.026,0.038 0.065,0.065 0.116,0.08l0.862,0.25c0.181,0.051 0.326,0.158 0.436,0.323c0.111,0.164 0.166,0.35 0.166,0.557l0,0.274c0,0.328 -0.084,0.589 -0.253,0.781c-0.169,0.192 -0.394,0.288 -0.676,0.288l-0.426,0Z" style="fill:#ff6855;fill-rule:nonzero;"/><path d="M6.132,21.985c-0.199,0 -0.375,-0.063 -0.529,-0.189c-0.153,-0.127 -0.271,-0.304 -0.355,-0.531c-0.084,-0.228 -0.126,-0.491 -0.126,-0.789l0,-0.888c0,-0.299 0.042,-0.562 0.126,-0.789c0.084,-0.228 0.201,-0.405 0.353,-0.532c0.152,-0.126 0.327,-0.189 0.526,-0.189l0.375,-0c0.189,-0 0.357,0.061 0.502,0.182c0.145,0.121 0.258,0.292 0.337,0.512c0.079,0.22 0.118,0.474 0.118,0.763l-0.64,-0c0,-0.172 -0.029,-0.31 -0.088,-0.414c-0.058,-0.104 -0.135,-0.155 -0.229,-0.155l-0.365,-0c-0.111,-0 -0.2,0.064 -0.268,0.193c-0.068,0.129 -0.102,0.297 -0.102,0.505l-0,0.736c-0,0.207 0.035,0.375 0.104,0.504c0.07,0.129 0.16,0.194 0.27,0.194l0.365,-0c0.101,-0 0.183,-0.058 0.244,-0.175c0.062,-0.116 0.093,-0.27 0.093,-0.463l0.64,0c-0,0.461 -0.09,0.83 -0.268,1.108c-0.179,0.278 -0.415,0.417 -0.709,0.417l-0.374,0Z" style="fill:#ff6855;fill-rule:nonzero;"/><path d="M7.871,18.093l0.598,0l-0,0.494c0.06,-0.149 0.146,-0.271 0.258,-0.367c0.112,-0.095 0.23,-0.142 0.353,-0.142l0.322,-0l0,0.91l-0.322,-0c-0.167,-0 -0.303,0.082 -0.407,0.247c-0.105,0.164 -0.157,0.375 -0.157,0.632l0,2.074l-0.645,0l0,-3.848Z" style="fill:#ff6855;fill-rule:nonzero;"/><path d="M10.488,21.985c-0.25,0 -0.45,-0.137 -0.602,-0.412c-0.152,-0.275 -0.228,-0.636 -0.228,-1.083l0,-2.412l0.645,-0l0,2.428c0,0.169 0.026,0.307 0.078,0.412c0.052,0.105 0.121,0.158 0.206,0.158l0.275,-0c0.105,-0 0.199,-0.071 0.285,-0.212c0.085,-0.141 0.145,-0.328 0.18,-0.559l-0,-2.227l0.645,-0l-0,3.846l-0.598,-0l0,-0.493c-0.072,0.164 -0.162,0.298 -0.267,0.4c-0.106,0.103 -0.208,0.154 -0.306,0.154l-0.313,0Z" style="fill:#ff6855;fill-rule:nonzero;"/><path d="M13.664,21.985c-0.098,0 -0.198,-0.036 -0.299,-0.11c-0.101,-0.074 -0.183,-0.169 -0.246,-0.287l-0,0.353l-0.598,0l0,-3.863l0.645,-0l0,1.324c0.063,-0.077 0.141,-0.139 0.235,-0.187c0.093,-0.048 0.182,-0.072 0.267,-0.072l0.332,0c0.184,0 0.346,0.045 0.486,0.135c0.141,0.09 0.25,0.218 0.327,0.384c0.078,0.165 0.116,0.357 0.116,0.574l0,0.629c0,0.221 -0.039,0.416 -0.118,0.585c-0.079,0.169 -0.19,0.301 -0.332,0.395c-0.142,0.094 -0.305,0.14 -0.488,0.14l-0.327,0Zm0.251,-0.656c0.111,-0 0.2,-0.048 0.268,-0.144c0.068,-0.095 0.102,-0.221 0.102,-0.375l-0,-0.519c-0,-0.147 -0.033,-0.266 -0.1,-0.356c-0.066,-0.09 -0.153,-0.135 -0.261,-0.135l-0.293,-0c-0.127,-0 -0.233,0.051 -0.318,0.154c-0.085,0.103 -0.134,0.24 -0.147,0.409l0,0.474c0.022,0.148 0.074,0.266 0.154,0.356c0.081,0.091 0.176,0.136 0.287,0.136l0.308,-0Z" style="fill:#ff6855;fill-rule:nonzero;"/><path d="M16.133,21.985c-0.246,0 -0.445,-0.072 -0.597,-0.216c-0.152,-0.144 -0.227,-0.334 -0.227,-0.57l-0,-0.205c-0,-0.233 0.079,-0.42 0.237,-0.563c0.158,-0.142 0.366,-0.213 0.625,-0.213l0.289,-0c0.083,-0 0.171,0.013 0.266,0.039c0.095,0.026 0.182,0.061 0.261,0.105l-0,-0.288c-0,-0.092 -0.027,-0.167 -0.079,-0.224c-0.052,-0.058 -0.121,-0.086 -0.206,-0.086l-0.408,-0c-0.088,-0 -0.159,0.024 -0.213,0.072c-0.054,0.048 -0.08,0.112 -0.08,0.194l-0.626,-0c-0,-0.27 0.084,-0.487 0.253,-0.651c0.17,-0.165 0.392,-0.247 0.666,-0.247l0.408,-0c0.278,-0 0.503,0.086 0.673,0.258c0.171,0.171 0.256,0.399 0.256,0.684l0,1.867l-0.597,0l-0,-0.332c-0.076,0.114 -0.169,0.206 -0.28,0.274c-0.11,0.068 -0.219,0.102 -0.327,0.102l-0.294,0Zm0.342,-0.576c0.117,0 0.221,-0.035 0.312,-0.105c0.092,-0.07 0.158,-0.164 0.2,-0.283l-0,-0.094c-0.051,-0.044 -0.121,-0.079 -0.211,-0.105c-0.09,-0.026 -0.186,-0.039 -0.287,-0.039l-0.299,0c-0.076,0 -0.137,0.022 -0.185,0.067c-0.047,0.044 -0.071,0.103 -0.071,0.177l0,0.144c0,0.07 0.026,0.127 0.078,0.172c0.053,0.044 0.121,0.066 0.207,0.066l0.256,0Z" style="fill:#ff6855;fill-rule:nonzero;"/><path d="M18.153,19.143l0.597,0l-0,0.359c0.06,-0.108 0.146,-0.197 0.258,-0.266c0.112,-0.069 0.23,-0.104 0.353,-0.104l0.323,-0l-0,0.662l-0.323,-0c-0.167,-0 -0.303,0.059 -0.407,0.179c-0.105,0.12 -0.157,0.273 -0.157,0.46l0,1.508l-0.644,0l-0,-2.798Z" style="fill:#ff6855;fill-rule:nonzero;"/><path d="M19.968,19.143l0.597,0l0,0.359c0.06,-0.108 0.146,-0.197 0.259,-0.266c0.112,-0.069 0.229,-0.104 0.353,-0.104l0.322,-0l0,0.662l-0.322,-0c-0.168,-0 -0.304,0.059 -0.408,0.179c-0.104,0.12 -0.156,0.273 -0.156,0.46l-0,1.508l-0.645,0l-0,-2.798Z" style="fill:#ff6855;fill-rule:nonzero;"/></g></svg>